<?xml version="1.0" encoding="UTF-8"?>
<!DOCTYPE svg PUBLIC "-//W3C//DTD SVG 1.1//EN" "http://www.w3.org/Graphics/SVG/1.1/DTD/svg11.dtd">
<!-- Creator: CorelDRAW X7 -->
<svg xmlns="http://www.w3.org/2000/svg" xml:space="preserve" width="1920px" height="800px" version="1.1" style="shape-rendering:geometricPrecision; text-rendering:geometricPrecision; image-rendering:optimizeQuality; fill-rule:evenodd; clip-rule:evenodd"
viewBox="0 0 1920 800"
 xmlns:xlink="http://www.w3.org/1999/xlink">
 <defs>
  <style type="text/css">
   <![CDATA[
    .fil14 {fill:#AEB6B9}
    .fil0 {fill:#CFD4D5}
    .fil5 {fill:#D0D5D7}
    .fil1 {fill:#D1D6D8}
    .fil6 {fill:#D2D6D8}
    .fil12 {fill:#D2D7D9}
    .fil7 {fill:#D4D9DB}
    .fil3 {fill:#D5DADC}
    .fil10 {fill:#D6DADB}
    .fil11 {fill:#D7DBDC}
    .fil9 {fill:#DADDDF}
    .fil4 {fill:#DBDFE0}
    .fil8 {fill:#DCDFE1}
    .fil2 {fill:#DEE1E3}
    .fil13 {fill:#DFE4E8}
   ]]>
  </style>
 </defs>
 <g id="Layer_x0020_1">
  <metadata id="CorelCorpID_0Corel-Layer"/>
  <g id="_2426818682320">
   <path class="fil0" d="M130 1647c0,-5 1,-3 -5,-3l5 3z"/>
   <path class="fil1" d="M198 1680c0,-6 1,-4 -6,-4l6 4z"/>
   <path class="fil1" d="M151 1658c0,-5 1,-4 -5,-3l5 3z"/>
   <path class="fil1" d="M144 1655c0,-6 1,-4 -5,-4l5 4z"/>
   <path class="fil1" d="M1539 1615c-5,0 -4,-1 -4,4l4 -4z"/>
   <path class="fil1" d="M1600 1579c-6,0 -4,-1 -4,4l4 -4z"/>
   <polygon class="fil1" points="327,1729 321,1726 "/>
   <polygon class="fil1" points="338,1733 332,1730 "/>
   <polygon class="fil1" points="1220,1747 1214,1751 "/>
   <path class="fil2" d="M1589 1586l-4 4c5,0 4,2 4,-4z"/>
   <path class="fil2" d="M1571 1597l-4 4c5,0 4,1 4,-4z"/>
   <polygon class="fil2" points="577,1791 566,1787 "/>
   <path class="fil3" d="M1418 1676c-6,0 -5,-2 -5,3 6,1 5,2 5,-3z"/>
   <path class="fil3" d="M26 1590c0,-5 1,-3 -5,-4 0,6 -1,4 5,4z"/>
   <polygon class="fil3" points="-96,1508 -100,1504 "/>
   <polygon class="fil3" points="1279,1730 1273,1733 "/>
   <polygon class="fil3" points="1245,1740 1239,1744 "/>
   <polygon class="fil3" points="1167,1762 1159,1766 "/>
   <path class="fil4" d="M101 1633l-4 -4c0,6 -2,4 4,4z"/>
   <polygon class="fil4" points="1311,1719 1305,1722 "/>
   <path class="fil5" d="M276 1712c0,-6 2,-4 -5,-3l5 3z"/>
   <path class="fil5" d="M1564 1601c-5,0 -4,-2 -4,4l4 -4z"/>
   <path class="fil5" d="M-14 1565c0,-5 1,-3 -4,-4l4 4z"/>
   <path class="fil5" d="M1729 1490c-6,0 -4,-1 -4,4l4 -4z"/>
   <path class="fil5" d="M-128 1483c0,-5 1,-4 -4,-4l4 4z"/>
   <polygon class="fil5" points="605,1794 593,1790 "/>
   <path class="fil6" d="M-46 1544c0,-5 1,-4 -4,-4l4 4z"/>
   <path class="fil7" d="M158 1662c0,-6 1,-4 -4,-4 0,5 -2,4 4,4z"/>
   <path class="fil7" d="M1478 1647c-5,0 -4,-1 -4,4 6,0 4,2 4,-4z"/>
   <path class="fil7" d="M69 1615c0,-5 1,-3 -5,-4 0,6 -1,4 5,4z"/>
   <path class="fil7" d="M-3 1572c0,-5 1,-3 -4,-4 0,6 -1,4 4,4z"/>
   <path class="fil7" d="M1639 1554c-5,0 -4,-1 -4,4 5,0 4,1 4,-4z"/>
   <path class="fil7" d="M1686 1522c-6,0 -4,-1 -4,4l4 -4z"/>
   <polygon class="fil7" points="1340,1708 1334,1712 "/>
   <polygon class="fil7" points="348,1737 342,1734 "/>
   <polygon class="fil7" points="482,1773 474,1768 "/>
   <path class="fil8" d="M1257 1737l-6 3c7,1 6,3 6,-3z"/>
   <path class="fil8" d="M1368 1697l-6 4c7,0 6,2 6,-4z"/>
   <path class="fil8" d="M266 1708l-5 -3c0,5 -1,3 5,3z"/>
   <path class="fil8" d="M230 1694l-5 -4c0,6 -1,4 5,4z"/>
   <path class="fil8" d="M1457 1658l-5 4c6,0 5,1 5,-4z"/>
   <path class="fil8" d="M1546 1611l-4 4c5,0 4,2 4,-4z"/>
   <path class="fil8" d="M1507 1633l-5 3c6,0 5,2 5,-3z"/>
   <path class="fil8" d="M8 1579l-4 -4c0,6 -1,4 4,4z"/>
   <path class="fil8" d="M1617 1568l-4 4c6,0 4,2 4,-4z"/>
   <polygon class="fil8" points="295,1718 289,1715 "/>
   <polygon class="fil8" points="408,1755 402,1751 "/>
   <polygon class="fil8" points="962,1797 944,1801 "/>
   <path class="fil9" d="M1464 1655c-6,0 -5,-2 -5,3 6,0 5,2 5,-3z"/>
   <path class="fil9" d="M248 1701l-5 -3c0,5 -1,3 5,3z"/>
   <path class="fil9" d="M205 1683l-5 -3c0,5 -1,3 5,3z"/>
   <path class="fil9" d="M166 1665l-5 -3c0,5 -1,3 5,3z"/>
   <path class="fil9" d="M1500 1637l-5 3c6,0 5,2 5,-3z"/>
   <path class="fil9" d="M1661 1540l-4 4c5,0 4,1 4,-4z"/>
   <path class="fil9" d="M-82 1519l-4 -4c0,5 -1,4 4,4z"/>
   <polygon class="fil9" points="1743,1479 1739,1483 "/>
   <polygon class="fil9" points="359,1740 353,1737 "/>
   <polygon class="fil9" points="383,1748 377,1743 "/>
   <polygon class="fil9" points="395,1751 389,1748 "/>
   <polygon class="fil9" points="1152,1765 1145,1769 "/>
   <polygon class="fil9" points="1120,1773 1112,1776 "/>
   <polygon class="fil9" points="992,1794 979,1797 "/>
   <path class="fil10" d="M1471 1651c-6,0 -4,-2 -4,3 5,0 4,2 4,-3z"/>
   <path class="fil10" d="M1486 1644c-6,0 -5,-2 -5,3 6,0 5,2 5,-3z"/>
   <path class="fil10" d="M1493 1640c-6,0 -5,-1 -5,4 6,0 5,1 5,-4z"/>
   <polygon class="fil10" points="1290,1726 1283,1729 "/>
   <polygon class="fil10" points="422,1759 415,1754 "/>
   <polygon class="fil10" points="1181,1758 1174,1762 "/>
   <path class="fil11" d="M108 1637c0,-6 1,-4 -5,-4 0,5 -1,4 5,4z"/>
   <path class="fil11" d="M1628 1561c-5,0 -4,-1 -4,4 6,0 4,1 4,-4z"/>
   <path class="fil11" d="M44 1601c0,-5 1,-4 -5,-4 0,5 -1,4 5,4z"/>
   <path class="fil11" d="M-57 1537c0,-6 2,-4 -4,-5l4 5z"/>
   <polygon class="fil11" points="-110,1497 -114,1493 "/>
   <polygon class="fil11" points="1650,1547 1646,1551 "/>
   <polygon class="fil11" points="306,1722 300,1719 "/>
   <polygon class="fil11" points="1300,1723 1294,1726 "/>
   <polygon class="fil11" points="1268,1733 1262,1736 "/>
   <polygon class="fil11" points="1195,1754 1188,1758 "/>
   <polygon class="fil11" points="466,1769 458,1765 "/>
   <polygon class="fil11" points="1137,1768 1128,1773 "/>
   <polygon class="fil11" points="1019,1790 1006,1794 "/>
   <polygon class="fil11" points="631,1797 619,1794 "/>
   <path class="fil12" d="M919 1801l-28 4c12,0 19,1 28,-4z"/>
   <path class="fil12" d="M1393 1687c-7,0 -6,-2 -6,3l6 -3z"/>
   <path class="fil12" d="M115 1640c0,-5 2,-4 -4,-3l4 3z"/>
   <path class="fil12" d="M122 1644c0,-5 1,-4 -4,-4l4 4z"/>
   <polygon class="fil12" points="316,1726 310,1723 "/>
   <polygon class="fil12" points="1233,1744 1226,1747 "/>
   <polygon class="fil12" points="436,1762 429,1758 "/>
   <polygon class="fil12" points="451,1766 444,1762 "/>
   <polygon class="fil12" points="1084,1779 1074,1784 "/>
   <path class="fil13" d="M760 -647c657,-60 745,937 92,997 -659,60 -748,-937 -92,-997zm-902 2117c19,-616 338,-898 947,-898 602,0 934,283 947,897 331,-207 549,-747 560,-1124 7,-246 -42,-473 -146,-695 -143,-305 -288,-375 -357,-479 -43,-23 -137,-106 -192,-142 -67,-43 -142,-83 -215,-114 -176,-76 -341,-111 -532,-122 -644,-19 -1220,341 -1463,941 -131,325 -145,690 -38,1024 78,243 275,567 489,712z"/>
   <path class="fil14" d="M-142 1470l10 9c5,0 4,-1 4,4l14 10 4 4 10 7 4 4 10 7 4 4 21 13c6,1 4,-1 4,5l7 3c5,0 4,-1 4,4l28 17c5,1 4,-1 4,4l7 3c5,1 4,-1 4,4l7 3 4 4 13 7c6,1 5,-1 5,4l13 7c6,0 5,-1 5,4l20 10c6,1 5,-1 5,4l28 14 4 4 2 0c6,0 5,-2 5,4l3 0c6,-1 4,-2 4,3l3 0c5,0 4,-1 4,4l3 0c6,0 5,-2 5,3l9 4c6,0 5,-2 5,4l2 0c6,-1 5,-2 5,3l3 0c5,0 4,-2 4,4l3 0 5 3 26 11c7,0 6,-2 6,4l2 0 5 3 20 7 5 4 13 4 5 3 13 4 5 3 5 1c7,-1 5,-3 5,3l13 3 6 3 5 1 6 3 4 1 6 3 5 0 6 3 5 1 6 3 4 1 6 3 5 0 6 3 18 3 6 5 6 0 6 3 7 0 6 4 7 -1 7 5 7 -1 7 4 8 0 7 4 7 -1 8 4 8 -1 8 5 84 14 11 4 16 -1 12 4 14 0 12 3 260 8 28 -4 25 0 18 -4 17 0 13 -3 14 0 13 -4 55 -6 10 -5 28 -3 8 -3 8 0 9 -5 8 1 7 -4 7 1 8 -4 7 0 7 -4 7 0 7 -4 19 -3 6 -4 6 0 7 -3 6 0 6 -4 6 0 6 -3 5 -1 6 -3 5 0 6 -3 4 -1 7 -3 4 0 6 -3 5 -1 6 -3 23 -7 6 -4 22 -7 6 -4 19 -7c0,-5 -1,-3 6,-3l20 -8c0,-5 -1,-3 5,-3l34 -14 5 -4 2 0c0,-5 -1,-3 5,-3l3 -1c0,-5 -2,-3 4,-3l3 0c0,-5 -1,-4 4,-4l3 0c0,-5 -1,-3 5,-3l2 0c0,-5 -1,-4 5,-4l2 0 5 -3 2 -1 5 -3 28 -14c0,-5 -1,-4 4,-4l3 0 4 -4 14 -6c0,-6 -1,-4 4,-4l3 0 4 -4 14 -7 4 -4 7 -3c0,-5 -2,-4 4,-4l13 -7 4 -4 7 -3c0,-5 -1,-4 4,-4l7 -3c0,-5 -1,-4 4,-4l7 -3 4 -4 7 -3 4 -4 21 -14c0,-5 -2,-4 4,-4l39 -28c0,-5 -2,-4 4,-4l10 -7 4 -4 9 -10c-13,-614 -345,-897 -947,-897 -609,0 -928,282 -947,898z"/>
   <path class="fil14" d="M760 -647c-656,60 -567,1057 92,997 653,-60 565,-1057 -92,-997z"/>
  </g>
 </g>
</svg>
